<?xml version="1.0" encoding="utf-8"?>
<!-- Generator: Adobe Illustrator 21.0.0, SVG Export Plug-In . SVG Version: 6.00 Build 0)  -->
<svg version="1.1" id="Layer_1" xmlns="http://www.w3.org/2000/svg" xmlns:xlink="http://www.w3.org/1999/xlink" x="0px" y="0px"
	 viewBox="0 0 21 21" style="enable-background:new 0 0 21 21;" xml:space="preserve">
<style type="text/css">
	.st0{fill:#FFFFFF;}
	.st1{fill:#1C1C1C;}
</style>
<path id="Blue_1_" class="st0" d="M19.8,21c0.6,0,1.2-0.5,1.2-1.2V1.2C21,0.5,20.5,0,19.8,0H1.2C0.5,0,0,0.5,0,1.2v18.7
	C0,20.5,0.5,21,1.2,21H19.8z"/>
<path id="f_1_" class="st1" d="M14.5,21v-8.1h2.7l0.4-3.2h-3.1v-2c0-0.9,0.3-1.5,1.6-1.5l1.7,0V3.3c-0.3,0-1.3-0.1-2.4-0.1
	c-2.4,0-4.1,1.5-4.1,4.2v2.3H8.5v3.2h2.7V21H14.5z"/>
</svg>
