<?xml version="1.0" encoding="utf-8"?>
<!-- Generator: Adobe Illustrator 21.0.0, SVG Export Plug-In . SVG Version: 6.00 Build 0)  -->
<svg version="1.1" id="Capa_1" xmlns="http://www.w3.org/2000/svg" xmlns:xlink="http://www.w3.org/1999/xlink" x="0px" y="0px"
	 viewBox="0 0 348.3 522.5" style="enable-background:new 0 0 348.3 522.5;" xml:space="preserve">
<style type="text/css">
	.st0{fill:#FFFFFF;}
</style>
<g>
	<path d="M174.2,0C78.1,0,0,78.1,0,174.2c0,92.4,158.3,333.2,165.1,343.4c2,3,5.4,4.9,9.1,4.9s7.1-1.9,9.1-4.9
		c6.7-10.2,165.1-251,165.1-343.4C348.3,78.1,270.2,0,174.2,0z M174.2,250.3c-42,0-76.2-34.2-76.2-76.2S132.1,98,174.2,98
		s76.2,34.2,76.2,76.2S216.2,250.3,174.2,250.3z"/>
</g>
<rect x="80.6" y="77" class="st0" width="187.1" height="187.1"/>
<g>
	<path d="M86.3,83.4V257H262V83.4H86.3z M158.2,237.1h-51.7l0,0V104h51.4v14.5h-35.4V163h30.4v14.5h-30.4v45.2h35.4v14.5H158.2z
		 M242.1,237.1h-51.7v-14.5h35.4v-45.2h-30.4V163h30.4v-44.5h-35.4V104h51.4v133.1H242.1z"/>
	<polygon class="st0" points="122.8,177.4 153.2,177.4 153.2,163 122.8,163 122.8,118.5 158.2,118.5 158.2,104 106.5,104 
		106.5,237.1 106.5,237.1 158.2,237.1 158.2,222.6 122.8,222.6 	"/>
	<polygon class="st0" points="190.4,118.5 225.9,118.5 225.9,163 195.5,163 195.5,177.4 225.9,177.4 225.9,222.6 190.4,222.6 
		190.4,237.1 242.1,237.1 242.1,104 190.4,104 	"/>
</g>
</svg>
