<?xml version="1.0" encoding="utf-8"?>
<!-- Generator: Adobe Illustrator 21.0.0, SVG Export Plug-In . SVG Version: 6.00 Build 0)  -->
<svg version="1.1" id="Layer_1" xmlns="http://www.w3.org/2000/svg" xmlns:xlink="http://www.w3.org/1999/xlink" x="0px" y="0px"
	 viewBox="0 0 40 40" style="enable-background:new 0 0 40 40;" xml:space="preserve">
<style type="text/css">
	.st0{fill:#FFFFFF;}
</style>
<g>
	<g>
		<path class="st0" d="M20,35.3c-8.4,0-15.3-6.9-15.3-15.3S11.6,4.7,20,4.7S35.3,11.6,35.3,20S28.4,35.3,20,35.3z M20,6
			C12.2,6,6,12.2,6,20s6.2,14,14,14s14-6.2,14-14S27.8,6,20,6z"/>
	</g>
	<g>
		<path class="st0" d="M25.2,21.3h-6.6v-9.6c0-0.3,0.3-0.7,0.7-0.7c0.3,0,0.7,0.3,0.7,0.7V20h5.3c0.3,0,0.7,0.3,0.7,0.7
			S25.6,21.3,25.2,21.3z"/>
	</g>
	<g>
		<g>
			<path class="st0" d="M36,1.3c1.5,0,2.7,1.2,2.7,2.7v32c0,1.5-1.2,2.7-2.7,2.7H4c-1.5,0-2.7-1.2-2.7-2.7V4c0-1.5,1.2-2.7,2.7-2.7
				H36 M36,0H4C1.8,0,0,1.8,0,4v32c0,2.2,1.8,4,4,4h32c2.2,0,4-1.8,4-4V4C40,1.8,38.2,0,36,0L36,0z"/>
		</g>
	</g>
</g>
</svg>
