<?xml version="1.0" encoding="utf-8"?>
<!-- Generator: Adobe Illustrator 21.0.0, SVG Export Plug-In . SVG Version: 6.00 Build 0)  -->
<svg version="1.1" id="Layer_1" xmlns="http://www.w3.org/2000/svg" xmlns:xlink="http://www.w3.org/1999/xlink" x="0px" y="0px"
	 viewBox="0 0 21 21" style="enable-background:new 0 0 21 21;" xml:space="preserve">
<style type="text/css">
	.st0{fill:#FFFFFF;}
</style>
<g>
	<path class="st0" d="M10.5,1.9c2.8,0,3.1,0,4.2,0.1c1,0,1.6,0.2,1.9,0.4c0.5,0.2,0.8,0.4,1.2,0.8c0.4,0.4,0.6,0.7,0.8,1.2
		C18.8,4.7,19,5.2,19,6.3c0.1,1.1,0.1,1.4,0.1,4.2s0,3.1-0.1,4.2c0,1-0.2,1.6-0.4,1.9c-0.2,0.5-0.4,0.8-0.8,1.2
		c-0.4,0.4-0.7,0.6-1.2,0.8c-0.4,0.1-0.9,0.3-1.9,0.4c-1.1,0.1-1.4,0.1-4.2,0.1s-3.1,0-4.2-0.1c-1,0-1.6-0.2-1.9-0.4
		c-0.5-0.2-0.8-0.4-1.2-0.8s-0.6-0.7-0.8-1.2C2.2,16.3,2,15.8,2,14.7c-0.1-1.1-0.1-1.4-0.1-4.2s0-3.1,0.1-4.2c0-1,0.2-1.6,0.4-1.9
		c0.2-0.5,0.4-0.8,0.8-1.2s0.7-0.6,1.2-0.8C4.7,2.2,5.2,2,6.3,2C7.4,1.9,7.7,1.9,10.5,1.9 M10.5,0C7.6,0,7.3,0,6.2,0.1
		c-1.1,0-1.9,0.2-2.6,0.5C2.9,0.8,2.3,1.2,1.8,1.8c-0.6,0.5-1,1.1-1.2,1.8C0.3,4.3,0.1,5.1,0.1,6.2C0,7.3,0,7.6,0,10.5
		s0,3.2,0.1,4.3s0.2,1.9,0.5,2.5c0.3,0.7,0.6,1.3,1.2,1.9s1.2,0.9,1.9,1.2c0.7,0.3,1.4,0.4,2.5,0.5S7.6,21,10.5,21s3.2,0,4.3-0.1
		s1.9-0.2,2.5-0.5c0.7-0.3,1.3-0.6,1.9-1.2s0.9-1.2,1.2-1.9c0.3-0.7,0.4-1.4,0.5-2.5s0.1-1.5,0.1-4.3s0-3.2-0.1-4.3
		s-0.2-1.9-0.5-2.5c-0.3-0.7-0.6-1.3-1.2-1.9S18,0.9,17.3,0.6s-1.4-0.4-2.5-0.5S13.4,0,10.5,0L10.5,0z"/>
	<path class="st0" d="M10.5,5.1c-3,0-5.4,2.4-5.4,5.4s2.4,5.4,5.4,5.4s5.4-2.4,5.4-5.4S13.5,5.1,10.5,5.1z M10.5,14
		C8.6,14,7,12.4,7,10.5S8.6,7,10.5,7S14,8.6,14,10.5S12.4,14,10.5,14z"/>
	<circle class="st0" cx="16.1" cy="4.9" r="1.3"/>
</g>
</svg>
