<?xml version="1.0" encoding="utf-8"?>
<!-- Generator: Adobe Illustrator 21.0.0, SVG Export Plug-In . SVG Version: 6.00 Build 0)  -->
<svg version="1.1" id="Layer_1" xmlns="http://www.w3.org/2000/svg" xmlns:xlink="http://www.w3.org/1999/xlink" x="0px" y="0px"
	 viewBox="0 0 40 40" style="enable-background:new 0 0 40 40;" xml:space="preserve">
<style type="text/css">
	.st0{fill:#FFFFFF;}
</style>
<path class="st0" d="M40,2.2C40,2.1,40,2.1,40,2.2C39.9,2.1,39.9,2.1,40,2.2c-0.1-0.2-0.1-0.2-0.2-0.2c0,0,0,0,0,0c0,0,0,0,0,0
	c-0.1,0-0.2-0.1-0.3-0.1c0,0,0,0,0,0c0,0-0.1,0-0.1,0L0.3,18C0.1,18.1,0,18.2,0,18.4c0,0.2,0.1,0.4,0.3,0.5l14.9,5.8v13.2
	c0,0.2,0.2,0.4,0.4,0.5c0,0,0.1,0,0.1,0c0.2,0,0.3-0.1,0.4-0.2l5.7-9.8l10.5,5.8c0.1,0,0.2,0.1,0.2,0.1c0.1,0,0.1,0,0.2,0
	c0.1-0.1,0.2-0.2,0.3-0.4L40,2.4c0,0,0,0,0,0C40,2.3,40,2.2,40,2.2z M37.1,3.9L20.4,19.4l-4.7,4.4L1.9,18.4L37.1,3.9z M16.3,36.1
	V25.2l4.8,2.6L16.3,36.1z M32.4,32.9l-15.8-8.7L38.7,3.8L32.4,32.9z"/>
</svg>
