<?xml version="1.0" encoding="utf-8"?>
<!-- Generator: Adobe Illustrator 21.0.0, SVG Export Plug-In . SVG Version: 6.00 Build 0)  -->
<svg version="1.1" id="Layer_1" xmlns="http://www.w3.org/2000/svg" xmlns:xlink="http://www.w3.org/1999/xlink" x="0px" y="0px"
	 viewBox="0 0 40 40" style="enable-background:new 0 0 40 40;" xml:space="preserve">
<style type="text/css">
	.st0{fill:#FFFFFF;}
</style>
<g>
	<path class="st0" d="M25.3,1.9L36,9v8.3c0,0.3,0.3,0.7,0.7,0.7s0.7-0.3,0.7-0.7V8.7c0-0.2-0.1-0.4-0.3-0.6l-12-8l0,0
		c-0.1,0-0.2-0.1-0.3-0.1l0,0c-0.1,0-0.2,0.1-0.3,0.1l0,0L12.7,7.8L1,0.1C0.8,0,0.6,0,0.3,0.1C0.2,0.2,0,0.4,0,0.7v28
		c0,0.2,0.1,0.4,0.3,0.6l12,8l0,0c0.1,0.1,0.2,0.1,0.3,0.1c0.2,0,0.2-0.1,0.3-0.1l0,0l10-6.7c0.3-0.2,0.4-0.6,0.2-0.9
		c-0.2-0.3-0.6-0.4-0.9-0.2l-8.9,5.9V9L24,1.9v15.4c0,0.3,0.3,0.7,0.7,0.7c0.3,0,0.7-0.3,0.7-0.7C25.3,17.3,25.3,1.9,25.3,1.9z
		 M1.3,1.9L12,9v26.4L1.3,28.3V1.9z"/>
	<path class="st0" d="M32.7,24c-1.8,0-3.3,1.5-3.3,3.3s1.5,3.3,3.3,3.3c1.8,0,3.3-1.5,3.3-3.3S34.5,24,32.7,24z M32.7,29.3
		c-1.1,0-2-0.9-2-2c0-1.1,0.9-2,2-2s2,0.9,2,2C34.7,28.4,33.8,29.3,32.7,29.3z"/>
	<path class="st0" d="M32.7,20c-4.1,0-7.3,3.2-7.3,7.3c0,3.8,6.5,12.1,6.8,12.4c0.2,0.2,0.3,0.2,0.5,0.2s0.4-0.1,0.5-0.2
		c0.2-0.3,6.8-8.6,6.8-12.4C40,23.2,36.8,20,32.7,20z M32.7,38.2c-2.1-2.7-6-8.3-6-10.9c0-3.3,2.7-6,6-6s6,2.7,6,6
		C38.7,29.9,34.8,35.6,32.7,38.2z"/>
</g>
</svg>
