<?xml version="1.0" encoding="utf-8"?>
<!-- Generator: Adobe Illustrator 21.0.0, SVG Export Plug-In . SVG Version: 6.00 Build 0)  -->
<svg version="1.1" id="Layer_1" xmlns="http://www.w3.org/2000/svg" xmlns:xlink="http://www.w3.org/1999/xlink" x="0px" y="0px"
	 viewBox="0 0 40 40" style="enable-background:new 0 0 40 40;" xml:space="preserve">
<style type="text/css">
	.st0{fill:#FFFFFF;}
</style>
<path class="st0" d="M20,0C9,0,0,9,0,20s9,20,20,20c7.2,0,9.9-2.7,10.8-5c0.8-1.9,0.5-3.8,0.1-4.8l0.7-0.7c0.7-0.7,1-1.4,1.1-2.3
	s-0.2-1.7-0.8-2.3l-2.7-2.5c-1.2-1.2-3.2-1.2-4.6,0.2L24.1,23c-2.5-2.1-4.9-4.5-7-7l0.5-0.5c0.7-0.7,1-1.4,1.1-2.3
	c0.1-0.9-0.2-1.7-0.8-2.3l-2.6-2.6c-0.6-0.6-1.4-0.9-2.3-0.8c-0.8,0.1-1.7,0.4-2.3,1.1L9,10.1c-1.6,1.6-1.9,4-0.8,5.8
	c4.1,6.5,9.7,12.1,16.2,16.2c0.7,0.4,1.5,0.7,2.2,0.7c1.2,0,2.4-0.5,3.4-1.4c0.2,0.8,0.3,2.2-0.3,3.5c-1.3,2.6-4.7,3.9-9.7,3.9
	C9.7,38.7,1.3,30.3,1.3,20S9.7,1.3,20,1.3S38.7,9.7,38.7,20c0,3.8-1.2,7.4-3.2,10.6c-0.2,0.3-0.2,0.8,0.2,0.9
	c0.3,0.2,0.8,0.2,0.9-0.2C38.8,28,40,24.1,40,20C40,9,31,0,20,0z M24.9,30.8c-6.3-4-11.7-9.4-15.7-15.8c-0.8-1.2-0.5-2.9,0.7-4.1
	l1.6-1.6c0.4-0.4,0.9-0.7,1.4-0.7h0.1c0.5,0,0.9,0.2,1.2,0.5l2.6,2.6c0.3,0.3,0.5,0.8,0.5,1.2s-0.2,1-0.7,1.4l0,0l-1,1
	c-0.2,0.2-0.2,0.6-0.1,0.9c2.3,2.9,5.2,5.8,8.1,8.1c0.2,0.2,0.7,0.2,0.9-0.1l1-1c0.8-0.8,2-0.9,2.8-0.2l2.7,2.6
	c0.3,0.3,0.5,0.7,0.5,1.2c0,0.5-0.2,1-0.7,1.4l-1.6,1.6C27.8,31.3,26.2,31.6,24.9,30.8z"/>
</svg>
