<?xml version="1.0" encoding="utf-8"?>
<!-- Generator: Adobe Illustrator 21.0.0, SVG Export Plug-In . SVG Version: 6.00 Build 0)  -->
<svg version="1.1" id="Layer_1" xmlns="http://www.w3.org/2000/svg" xmlns:xlink="http://www.w3.org/1999/xlink" x="0px" y="0px"
	 viewBox="0 0 114 38" style="enable-background:new 0 0 114 38;" xml:space="preserve">
<style type="text/css">
	.st0{fill:#FFFFFF;}
</style>
<g>
	<g>
		<path class="st0" d="M0,38V0h14.7v4.1H4.6v12.8h8.7V21H4.6v12.9h10.1V38L0,38L0,38z"/>
	</g>
	<g>
		<path class="st0" d="M97.4,38v-4.1h10.1V21h-8.7v-4.1h8.7V4.1H97.4V0h14.7v38H97.4z"/>
	</g>
	<g>
		<path class="st0" d="M26.7,19.1L25,13.9l-1.7,5.2h-1.7l2.5-6.8L21.8,6h1.7l1.5,4.8L26.5,6h1.7l-2.4,6.3l2.6,6.8H26.7z"/>
		<path class="st0" d="M37.4,13.6H36v5.5h-1.6V6h2.9c2,0,3.1,0.9,3.1,3.8S39.4,13.6,37.4,13.6z M37.4,7.4H36v4.8h1.3
			c1.1,0,1.6-0.6,1.6-2.4C38.9,8.1,38.4,7.4,37.4,7.4z"/>
		<path class="st0" d="M52.2,18.3c-0.5,0.6-1.2,1-2.3,1c-1,0-1.7-0.4-2.3-1c-0.9-0.9-1-2.1-1-5.7s0.1-4.8,1-5.7c0.5-0.6,1.2-1,2.3-1
			c1,0,1.7,0.4,2.3,1c0.9,0.9,1,2.1,1,5.7S53,17.4,52.2,18.3z M51,7.8c-0.2-0.3-0.6-0.5-1.1-0.5c-0.5,0-0.9,0.2-1.1,0.5
			c-0.5,0.6-0.5,1.7-0.5,4.8s0.1,4.2,0.5,4.8c0.2,0.3,0.6,0.5,1.1,0.5s0.9-0.2,1.1-0.5c0.5-0.6,0.6-1.7,0.6-4.8S51.5,8.4,51,7.8z"/>
		<path class="st0" d="M64.7,18.4c-0.5,0.5-1.3,0.8-2.3,0.8c-1,0-1.8-0.3-2.3-0.8c-0.6-0.6-0.8-1.4-0.8-2.8h1.6
			c0,0.9,0.1,1.3,0.4,1.7c0.2,0.2,0.6,0.4,1.1,0.4c0.5,0,0.9-0.2,1.1-0.4c0.3-0.4,0.4-0.9,0.4-1.7c0-1.5-0.2-2-1.3-2.4l-1.5-0.6
			c-1.3-0.6-1.8-1.3-1.8-3.3c0-1.1,0.3-2.1,1-2.7c0.5-0.5,1.2-0.8,2.1-0.8c1,0,1.7,0.3,2.2,0.8c0.7,0.6,0.9,1.5,0.9,2.7h-1.6
			c0-0.7-0.1-1.2-0.4-1.6c-0.2-0.3-0.6-0.4-1.1-0.4c-0.5,0-0.8,0.2-1,0.4c-0.3,0.3-0.5,0.9-0.5,1.6c0,1.3,0.2,1.7,1.2,2.1l1.5,0.6
			c1.5,0.6,1.8,1.5,1.8,3.6C65.5,17,65.3,17.8,64.7,18.4z"/>
		<path class="st0" d="M77.2,18.4c-0.6,0.6-1.3,0.9-2.2,0.9c-0.9,0-1.6-0.3-2.2-0.9c-0.5-0.5-0.9-1.3-0.9-2.3V6h1.6v10.2
			c0,1,0.6,1.6,1.4,1.6c0.8,0,1.4-0.6,1.4-1.6V6H78v10.1C78,17.1,77.7,17.9,77.2,18.4z"/>
		<path class="st0" d="M89.6,19.1l-1.8-5.6h-1.4v5.6h-1.6V6h3c2,0,3.1,0.9,3.1,3.7c0,1.8-0.4,2.9-1.6,3.4l2,5.9L89.6,19.1L89.6,19.1
			z M87.8,7.4h-1.4v4.6h1.4c1.2,0,1.5-0.9,1.5-2.3S89,7.4,87.8,7.4z"/>
	</g>
	<g>
		<path class="st0" d="M25.7,33.3c-0.3,0.3-0.7,0.5-1.2,0.5h-1.7v-8.2h1.7c0.6,0,0.9,0.2,1.2,0.5c0.5,0.5,0.6,1.1,0.6,3.6
			S26.2,32.8,25.7,33.3z M25.2,26.5c-0.2-0.2-0.4-0.3-0.8-0.3h-1v7h1c0.3,0,0.6-0.1,0.8-0.3c0.3-0.4,0.4-0.9,0.4-3.2
			C25.6,27.3,25.6,26.9,25.2,26.5z"/>
		<path class="st0" d="M31.7,33.7v-8.2h2.8v0.6h-2.2v3.2h1.9V30h-1.9v3.2h2.2v0.6L31.7,33.7L31.7,33.7z"/>
		<path class="st0" d="M41.4,26.2v7.6h-0.7v-7.6h-1.4v-0.6h3.4v0.6H41.4z"/>
		<path class="st0" d="M50.3,33.7l-0.4-2.3h-1.9l-0.4,2.3h-0.7l1.8-8.2h0.6l1.8,8.2H50.3z M48.9,26.8l-0.8,4.1h1.7L48.9,26.8z"/>
		<path class="st0" d="M55.9,33.7v-8.2h0.7v8.2H55.9z"/>
		<path class="st0" d="M62.2,33.7v-8.2h0.7v7.6H65v0.6L62.2,33.7L62.2,33.7z"/>
		<path class="st0" d="M70.1,33.7v-8.2h0.7v8.2H70.1z"/>
		<path class="st0" d="M79.3,33.7L77,27.4v6.4h-0.7v-8.2H77l2.3,6.4v-6.4H80v8.2H79.3z"/>
		<path class="st0" d="M87.2,33.8c-0.5,0-0.9-0.2-1.2-0.5c-0.5-0.5-0.6-1.1-0.6-3.7s0.1-3.2,0.6-3.7c0.3-0.3,0.7-0.5,1.2-0.5
			c0.5,0,0.9,0.2,1.2,0.4c0.3,0.4,0.5,0.9,0.5,1.5h-0.7c0-0.6-0.2-1.4-1-1.4c-0.3,0-0.6,0.1-0.7,0.3c-0.3,0.4-0.4,0.9-0.4,3.3
			s0,2.9,0.4,3.3c0.2,0.2,0.4,0.3,0.7,0.3c0.6,0,1-0.5,1-1.2v-2h-1v-0.6h1.7V32C88.9,33.2,88.1,33.8,87.2,33.8z"/>
	</g>
</g>
</svg>
