<?xml version="1.0" encoding="utf-8"?>
<!-- Generator: Adobe Illustrator 21.0.0, SVG Export Plug-In . SVG Version: 6.00 Build 0)  -->
<svg version="1.1" id="Layer_1" xmlns="http://www.w3.org/2000/svg" xmlns:xlink="http://www.w3.org/1999/xlink" x="0px" y="0px"
	 viewBox="0 0 21 21" style="enable-background:new 0 0 21 21;" xml:space="preserve">
<style type="text/css">
	.st0{fill:#FFFFFF;}
</style>
<path class="st0" d="M17.9,9.6c1.6-0.9,2.7-2.4,2.7-4.4c0-3-2.4-5.2-5.8-5.2h-1.5H1C0.5,0.1,0,0.5,0,1v8v0.8v9.8
	c0,0.6,0.5,1.2,1,1.2h12.2l0,0h1.5c3.1,0,5.8-3,5.8-6.2C20.5,12.8,19.4,10.8,17.9,9.6z M1.7,1.8h8.8L1.7,8.2V1.8z M1.7,19.3V11
	l9.2,8.2L1.7,19.3L1.7,19.3z M14.7,19.3h-1.2L3,9.8l10.5-8h1.2c2.7,0,4,1.7,4,3.4s-1.2,3.4-4,3.4c-0.5,0-0.9,0.4-0.9,0.9
	s0.4,0.9,0.9,0.9c2.1,0,4,2.2,4,4.4S16.8,19.3,14.7,19.3z"/>
</svg>
