<?xml version="1.0" encoding="utf-8"?>
<!-- Generator: Adobe Illustrator 21.0.0, SVG Export Plug-In . SVG Version: 6.00 Build 0)  -->
<svg version="1.1" id="Layer_1" xmlns="http://www.w3.org/2000/svg" xmlns:xlink="http://www.w3.org/1999/xlink" x="0px" y="0px"
	 viewBox="0 0 49 48" style="enable-background:new 0 0 49 48;" xml:space="preserve">
<style type="text/css">
	.st0{fill:#FFFFFF;}
</style>
<g>
	<path d="M0,0v48h48.6V0H0z M19.9,42.5H5.6v0V5.7h14.2v4h-9.8V22h8.4v4h-8.4v12.5h9.8V42.5z M43.1,42.5H28.8v-4h9.8V26h-8.4v-4h8.4
		V9.7h-9.8v-4h14.2V42.5z"/>
	<polygon class="st0" points="10.1,26 18.5,26 18.5,22 10.1,22 10.1,9.7 19.9,9.7 19.9,5.7 5.6,5.7 5.6,42.5 5.6,42.5 19.9,42.5 
		19.9,38.5 10.1,38.5 	"/>
	<polygon class="st0" points="28.8,9.7 38.6,9.7 38.6,22 30.2,22 30.2,26 38.6,26 38.6,38.5 28.8,38.5 28.8,42.5 43.1,42.5 
		43.1,5.7 28.8,5.7 	"/>
</g>
</svg>
